<svg width="87" height="24" viewBox="0 0 87 24" fill="none" xmlns="http://www.w3.org/2000/svg">
<path fill-rule="evenodd" clip-rule="evenodd" d="M13.0516 3.83545H16.9485L21.8969 17.6293H18.433L17.567 15.155H12.433L11.6289 17.6293H8.04126L13.0516 3.83545ZM16.6833 12.6184L14.9691 7.42257L13.2549 12.6184H16.6833Z" fill="black"/>
<path d="M26.7216 6.68035H23.5051V17.5669H26.7216L26.8453 11.9381C26.8453 11.9381 26.8413 11.0691 27.3402 10.5773C27.8135 10.1106 28.6391 10.0824 28.6391 10.0824H30.1237V6.55664C30.1237 6.55664 28.9455 6.58671 28.268 6.92777C27.5203 7.30419 26.7216 8.53602 26.7216 8.53602V6.68035Z" fill="black"/>
<path fill-rule="evenodd" clip-rule="evenodd" d="M36.3712 6.55664C33.57 6.55664 31.2991 8.82752 31.2991 11.6288V12.6185C31.2991 15.4198 33.57 17.6907 36.3712 17.6907H44.5362C47.3375 17.6907 49.6084 15.4198 49.6084 12.6185V11.6288C49.6084 8.82753 47.3375 6.55664 44.5362 6.55664H36.3712ZM37.4227 9.27821C35.8854 9.27821 34.6392 10.5244 34.6392 12.0617C34.6392 13.599 35.8854 14.8452 37.4227 14.8452H43.4846C45.0219 14.8452 46.2681 13.599 46.2681 12.0617C46.2681 10.5244 45.0219 9.27821 43.4846 9.27821H37.4227Z" fill="black"/>
<path fill-rule="evenodd" clip-rule="evenodd" d="M56.1029 17.6908C59.28 17.6908 61.8555 15.1707 61.8555 12.062C61.8555 8.95323 59.28 6.43311 56.1029 6.43311C52.9259 6.43311 50.3503 8.95323 50.3503 12.062C50.3503 15.1707 52.9259 17.6908 56.1029 17.6908ZM56.1649 14.9692C57.463 14.9692 58.5154 13.7229 58.5154 12.1857C58.5154 10.6484 57.463 9.40215 56.1649 9.40215C54.8667 9.40215 53.8144 10.6484 53.8144 12.1857C53.8144 13.7229 54.8667 14.9692 56.1649 14.9692Z" fill="black"/>
<path d="M63.4639 6.63336H66.8041V8.05604C66.8041 8.05604 67.5746 7.31735 68.1649 7.00448C68.9477 6.58963 69.4455 6.51968 70.3298 6.5715C71.4449 6.63684 72.1565 6.87907 72.9896 7.62306C73.8599 8.40024 74.2886 10.3447 74.2886 10.3447V17.52H71.0103V11.2107C71.0103 11.2107 70.6859 10.1664 70.3298 9.84985C69.8732 9.44378 69.5183 9.29315 68.9072 9.29315C68.2961 9.29315 67.8793 9.44378 67.4226 9.84985C67.0666 10.1664 66.8041 11.2107 66.8041 11.2107V17.52H63.4639V6.63336Z" fill="black"/>
</svg>
