<svg width="264" height="365" viewBox="0 0 264 365" fill="none" xmlns="http://www.w3.org/2000/svg">
<path fill-rule="evenodd" clip-rule="evenodd" d="M99.0685 353.747L23.9898 238.637C-14.2362 180.03 -6.08085 102.344 43.4662 53.1109L62.3163 34.3803C107.997 -11.011 181.186 -11.5193 227.482 33.2333C282.705 86.6152 274.076 178 209.856 219.907L144.347 262.654V340.071C144.347 364.769 112.526 374.381 99.0685 353.747ZM96.4368 97.2576C77.3281 116.532 77.328 147.783 96.4368 167.057L101.256 171.919C120.365 191.194 151.347 191.194 170.455 171.919C189.564 152.644 189.564 121.394 170.455 102.119L165.636 97.2576C146.527 77.9829 115.546 77.9829 96.4368 97.2576Z" fill="#D70000"/>
</svg>
