<svg width="92" height="23" viewBox="0 0 92 23" fill="none" xmlns="http://www.w3.org/2000/svg">
<path d="M0.162028 8.99459C0.165051 8.53179 0.542675 8.15907 1.00547 8.16209L8.54722 8.21136C9.01002 8.21438 9.38275 8.59201 9.37972 9.05481C9.3767 9.51761 8.99907 9.89033 8.53628 9.8873L1.8325 9.84351L1.7887 16.5473C1.78568 17.0101 1.40805 17.3828 0.945255 17.3798C0.482456 17.3768 0.109734 16.9991 0.112758 16.5363L0.162028 8.99459ZM91.1186 6.74639C81.4469 1.80215 73.4571 1.88486 66.293 4.16277C59.0556 6.464 52.6628 10.9936 46.1317 15.0759C39.6631 19.1191 33.062 22.7157 25.6235 22.7718C18.1377 22.8282 9.99614 19.3074 0.403593 9.58873L1.59641 8.4114C11.0039 17.9426 18.7373 21.1477 25.6109 21.0959C32.5318 21.0437 38.7744 17.698 45.2433 13.6547C51.6497 9.65043 58.2882 4.94935 65.7851 2.56559C73.3554 0.158514 81.8031 0.101963 91.8814 5.2541L91.1186 6.74639Z" fill="black"/>
</svg>
